<?xml version="1.0" encoding="utf-8"?>
<!-- Generator: Adobe Illustrator 27.9.0, SVG Export Plug-In . SVG Version: 6.00 Build 0)  -->
<svg version="1.1" id="图层_1" xmlns="http://www.w3.org/2000/svg" xmlns:xlink="http://www.w3.org/1999/xlink" x="0px" y="0px"
	 viewBox="0 0 423.2 44" style="enable-background:new 0 0 423.2 44;" xml:space="preserve">
<style type="text/css">
	.st0{fill:#FFFFFF;}
</style>
<g>
	<path class="st0" d="M22.8,41.1C11.3,40.4,7.1,30.3,7.1,21.8c0-9.4,2.8-19.2,15.5-19c8.7,0.2,11.1,7.3,11.7,10.4h1.1V1.9
		C31.9,1,28.4,0.3,23,0.2C14.6,0.1-0.3,4-0.3,21.6C-0.3,38.5,12.9,44,21.8,44c11.6,0,17-7,17-7c0.5-3.4,1.6-10,1.6-10h-1.1
		C38.3,35.4,33,41.8,22.8,41.1z"/>
	<path class="st0" d="M59.9,0.6H46.6v0.8c0,0,1.6,0.5,1.6,1.8v37.6c0,1.4-1.6,1.8-1.6,1.8v0.8h10v-0.8c0,0-1.6-0.5-1.6-1.8V24h5
		c11.9,0,17.4-5.2,17.4-12.1S72.5,0.6,59.9,0.6z M57.5,21.3c-1.3,0-2.5,0-2.5,0V3.4c0,0,0.9,0,2.5,0c8.4,0,12.5,2.5,12.5,8.5
		S65.1,21.3,57.5,21.3z"/>
	<path class="st0" d="M149.3,1.4c0,0,1.6,0.5,1.6,1.8c0,0,0,23.7,0,24.9c0,6.7-4.5,12.5-12.2,12.5c-7,0-13.4-4.8-13.4-12.3
		c0-1.3,0-25,0-25c0-1.4,1.6-1.8,1.6-1.8V0.6h-10v0.8c0,0,1.6,0.5,1.6,1.8c0,0,0,23.5,0,25c0,13.8,14.9,15.9,18.3,15.9
		c7.6,0,16.9-3.8,16.9-16.7c0-1.5,0-24.2,0-24.2c0-1.4,1.6-1.8,1.6-1.8V0.6h-5.9v0.8H149.3z"/>
	<path class="st0" d="M103.6,40.8c-1.9,0-9.7,0-9.7,0V3.3c0-1.4,1.6-1.8,1.6-1.8V0.6h-10v0.8c0,0,1.6,0.5,1.6,1.8c0,0,0,35.7,0,36.1
		c0,1.4-3.1,3.3-3.1,3.3v0.8h26.2l4.3-6.7l-0.7-0.5C110.5,40.3,107.4,40.8,103.6,40.8z"/>
	<path class="st0" d="M186.3,20.7c-3.1-1.9-6.3-3.6-9.8-5.6c-3.7-2.1-6.3-4-6.3-7.1c0-2.8,1.9-5,7.1-5.1c9.9-0.1,11.1,7.6,11.1,7.6
		h0.9V2.3c0,0-5.2-2.3-12.4-2.1c-4.2,0.2-11.7,1.4-11.8,9.1c-0.1,3.4,2,6.4,5.7,9.1c4.1,3,8,5.1,11.1,7.3c3.7,2.5,5,4.3,4.9,7.9
		c-0.1,4.4-3.8,7.7-9.8,7.7c-6.1,0-14.2-3.8-12.5-16.2l-1-0.1l-1.5,9.4c0.4,1.7,4.5,9.5,15.8,9.5c8.1,0,14.8-3.4,15.1-11.4
		C193.4,27.3,190.8,23.5,186.3,20.7z"/>
	<path class="st0" d="M244.8,20.7c-3.1-1.9-6.3-3.6-9.8-5.6c-3.7-2.1-6.3-4-6.3-7.1c0-2.8,1.9-5,7.1-5.1c9.9-0.1,11.1,7.6,11.1,7.6
		h0.9V2.3c0,0-5.2-2.3-12.4-2.1c-4.2,0.2-11.7,1.4-11.8,9.1c-0.1,3.4,2,6.4,5.7,9.1c4.1,3,8,5.1,11.1,7.3c3.7,2.5,5,4.3,4.9,7.9
		c-0.1,4.4-3.8,7.7-9.8,7.7c-6.1,0-14.2-3.8-12.5-16.2l-1-0.1l-1.5,9.4c0.4,1.7,4.5,9.5,15.8,9.5c8.1,0,14.8-3.4,15.1-11.4
		C251.9,27.3,249.4,23.5,244.8,20.7z"/>
	<path class="st0" d="M416.1,20.7c-3.1-1.9-6.3-3.6-9.8-5.6c-3.7-2.1-6.3-4-6.3-7.1c0-2.8,1.9-5,7.1-5.1c9.9-0.1,11.1,7.6,11.1,7.6
		h0.9V2.3c0,0-5.2-2.3-12.4-2.1c-4.2,0.2-11.7,1.4-11.8,9.1c-0.1,3.4,2,6.4,5.7,9.1c4.1,3,8,5.1,11.1,7.3c3.7,2.5,5,4.3,4.9,7.9
		c-0.1,4.4-3.8,7.7-9.8,7.7c-6.1,0-14.2-3.8-12.5-16.2l-1-0.1l-1.5,9.4c0.4,1.7,4.5,9.5,15.8,9.5c8.1,0,14.8-3.4,15.1-11.4
		C423.2,27.3,420.6,23.5,416.1,20.7z"/>
	<path class="st0" d="M327.5,40.6c-3.4-4.4-11.7-18.6-12-19c-0.3-0.3-0.1-0.7,0.3-0.8h-0.1c6.9-1.5,9.8-5.3,9.8-10.2
		c0-6.3-4.3-10-17-10h-12.4v0.8c0,0,1.6,0.5,1.6,1.8v37.6c0,1.4-1.6,1.8-1.6,1.8v0.8h9.7v-0.8c0,0-1.6-0.5-1.6-1.8V21.4h0.3
		c2.7,0,4.4,0.7,5.1,1.6c0.7,1,10.8,17.6,12.8,20.5c1.1,0,8.2,0,8.2,0v-0.8C329.8,42.4,328.6,42.1,327.5,40.6z M304.2,18.7V3.3
		c0,0,0.3,0,1.9,0c8.4,0,12.4,2,12.4,7.2s-4.7,8.2-12.4,8.2C304.8,18.7,304.2,18.7,304.2,18.7z"/>
	<path class="st0" d="M279.4,40.8c-1.9,0-10.4,0-10.4,0V21.9c4.1,0,11.5,0,11.9,0c1,0,1.1,0.6,1.1,0.6h0.7v-3.9H282
		c0,0-0.2,0.6-1.1,0.6c-0.2,0-7.8,0-11.9,0V3.3h13.6c1.4,0,1.7,1.1,1.7,1.1h0.7V0.6h-24v0.8c0,0,1.6,0.5,1.6,1.8v37.6
		c0,1.4-1.6,1.8-1.6,1.8v0.8h25.2l2.2-7.1l-0.8-0.2C286.8,38.4,283.6,40.8,279.4,40.8z"/>
	<path class="st0" d="M378.6,40.8c-1.9,0-10.4,0-10.4,0V21.9c4.1,0,11.5,0,11.9,0c1,0,1.1,0.6,1.1,0.6h0.7v-3.9h-0.7
		c0,0-0.2,0.6-1.1,0.6c-0.2,0-7.8,0-11.9,0V3.3h13.6c1.4,0,1.7,1.1,1.7,1.1h0.7V0.6h-24v0.8c0,0,1.6,0.5,1.6,1.8v37.6
		c0,1.4-1.6,1.8-1.6,1.8v0.8h25.2l2.2-7.1l-0.8-0.2C386,38.4,382.8,40.8,378.6,40.8z"/>
	<path class="st0" d="M346.1,40.9V3.3c0-1.3,1.6-1.8,1.6-1.8V0.6h-10v0.8c0,0,1.6,0.5,1.6,1.8v37.6c0,1.4-1.6,1.8-1.6,1.8v0.8h10
		v-0.8C347.7,42.7,346.1,42.2,346.1,40.9z"/>
</g>
</svg>
